<svg xmlns="http://www.w3.org/2000/svg" version="1.1" xmlns:xlink="http://www.w3.org/1999/xlink"
    xmlns:svgjs="http://svgjs.dev/svgjs" width="2000" height="621" viewBox="0 0 2000 621">
    <g transform="matrix(1,0,0,1,-1.2121212121212466,-0.022303877782292147)"><svg viewBox="0 0 396 123"
            data-background-color="#001f3f" preserveAspectRatio="xMidYMid meet" height="621" width="2000"
            xmlns="http://www.w3.org/2000/svg" xmlns:xlink="http://www.w3.org/1999/xlink">
            <g id="tight-bounds" transform="matrix(1,0,0,1,0.2400000000000091,0.00441767627572176)"><svg
                    viewBox="0 0 395.52 122.99116464744854" height="122.99116464744854" width="395.52">
                    <g><svg viewBox="0 0 395.52 122.99116464744854" height="122.99116464744854" width="395.52">
                            <g><svg viewBox="0 0 395.52 122.99116464744854" height="122.99116464744854" width="395.52">
                                    <g><svg viewBox="0 0 665.1181788001247 206.82559526399996"
                                            height="122.99116464744854" width="395.52">
                                            <g transform="matrix(1,0,0,1,269.5981788001247,4.586159740685247)"><svg
                                                    viewBox="0 0 395.52 197.65327578262946" height="197.65327578262946"
                                                    width="395.52">
                                                    <g id="textblocktransform"><svg
                                                            viewBox="0 0 395.52 197.65327578262946"
                                                            height="197.65327578262946" width="395.52" id="textblock">
                                                            <g><svg viewBox="0 0 395.52 106.60473237484842"
                                                                    height="106.60473237484842" width="395.52">
                                                                    <g transform="matrix(1,0,0,1,0,0)"><svg
                                                                            width="395.52"
                                                                            viewBox="3.17 -37.5 140.94000000000003 37.99"
                                                                            height="106.60473237484842"
                                                                            data-palette-color="#804dee">
                                                                            <path
                                                                                d="M32.08-35.55L32.08 0 24.76 0 10.5-23.39 10.5 0 3.17 0 3.17-35.55 10.5-35.55 24.78-12.11 24.78-35.55 32.08-35.55ZM60.45 0L53.32 0Q52.83-0.95 52.61-2.37L52.61-2.37Q50.05 0.49 45.94 0.49L45.94 0.49Q42.06 0.49 39.51-1.76 36.96-4 36.96-7.42L36.96-7.42Q36.96-11.62 40.07-13.87 43.19-16.11 49.07-16.14L49.07-16.14 52.32-16.14 52.32-17.65Q52.32-19.48 51.38-20.58 50.44-21.68 48.41-21.68L48.41-21.68Q46.63-21.68 45.62-20.83 44.6-19.97 44.6-18.48L44.6-18.48 37.55-18.48Q37.55-20.78 38.96-22.73 40.38-24.68 42.97-25.79 45.55-26.9 48.78-26.9L48.78-26.9Q53.66-26.9 56.53-24.45 59.4-22 59.4-17.55L59.4-17.55 59.4-6.1Q59.42-2.34 60.45-0.42L60.45-0.42 60.45 0ZM47.48-4.91L47.48-4.91Q49.05-4.91 50.36-5.6 51.68-6.3 52.32-7.47L52.32-7.47 52.32-12.01 49.68-12.01Q44.38-12.01 44.04-8.35L44.04-8.35 44.02-7.93Q44.02-6.62 44.94-5.76 45.87-4.91 47.48-4.91ZM64.67-26.42L71.31-26.42 71.53-23.36Q74.36-26.9 79.12-26.9L79.12-26.9Q83.32-26.9 85.37-24.44 87.42-21.97 87.47-17.07L87.47-17.07 87.47 0 80.41 0 80.41-16.89Q80.41-19.14 79.44-20.15 78.46-21.17 76.19-21.17L76.19-21.17Q73.21-21.17 71.72-18.63L71.72-18.63 71.72 0 64.67 0 64.67-26.42ZM115.25 0L108.12 0Q107.63-0.95 107.41-2.37L107.41-2.37Q104.85 0.49 100.75 0.49L100.75 0.49Q96.87 0.49 94.32-1.76 91.76-4 91.76-7.42L91.76-7.42Q91.76-11.62 94.88-13.87 97.99-16.11 103.87-16.14L103.87-16.14 107.12-16.14 107.12-17.65Q107.12-19.48 106.18-20.58 105.24-21.68 103.22-21.68L103.22-21.68Q101.43-21.68 100.42-20.83 99.41-19.97 99.41-18.48L99.41-18.48 92.35-18.48Q92.35-20.78 93.77-22.73 95.18-24.68 97.77-25.79 100.36-26.9 103.58-26.9L103.58-26.9Q108.46-26.9 111.33-24.45 114.2-22 114.2-17.55L114.2-17.55 114.2-6.1Q114.23-2.34 115.25-0.42L115.25-0.42 115.25 0ZM102.29-4.91L102.29-4.91Q103.85-4.91 105.17-5.6 106.49-6.3 107.12-7.47L107.12-7.47 107.12-12.01 104.48-12.01Q99.19-12.01 98.85-8.35L98.85-8.35 98.82-7.93Q98.82-6.62 99.75-5.76 100.68-4.91 102.29-4.91ZM136 0L129.21-10.6 126.67-8.06 126.67 0 119.62 0 119.62-37.5 126.67-37.5 126.67-16.72 128.04-18.48 134.8-26.42 143.28-26.42 133.73-15.41 144.11 0 136 0Z"
                                                                                opacity="1"
                                                                                transform="matrix(1,0,0,1,0,0)"
                                                                                fill="#804dee" class="wordmark-text-0"
                                                                                data-fill-palette-color="primary"
                                                                                id="text-0"></path>
                                                                        </svg></g>
                                                                </svg></g>
                                                            <g transform="matrix(1,0,0,1,0,131.77155117497313)"><svg
                                                                    viewBox="0 0 198.49198262255325 65.88172460765632"
                                                                    height="65.88172460765632"
                                                                    width="198.49198262255325">
                                                                    <g transform="matrix(1,0,0,1,0,0)"><svg
                                                                            width="198.49198262255325"
                                                                            viewBox="2.34 -37.5 114.45 37.99"
                                                                            height="65.88172460765632"
                                                                            data-palette-color="#ffffff">
                                                                            <path
                                                                                d="M12.4-3.2L12.4-3.2Q14.55-3.2 15.84-4.53 17.14-5.86 17.26-8.33L17.26-8.33 21.34-8.33Q21.19-4.52 18.64-2.01 16.09 0.49 12.4 0.49L12.4 0.49Q7.5 0.49 4.92-2.6 2.34-5.69 2.34-11.79L2.34-11.79 2.34-14.7Q2.34-20.68 4.91-23.79 7.47-26.9 12.38-26.9L12.38-26.9Q16.43-26.9 18.81-24.34 21.19-21.78 21.34-17.33L21.34-17.33 17.26-17.33Q17.11-20.26 15.86-21.73 14.6-23.19 12.38-23.19L12.38-23.19Q9.5-23.19 8.11-21.3 6.71-19.41 6.67-15.09L6.67-15.09 6.67-11.72Q6.67-7.06 8.04-5.13 9.42-3.2 12.4-3.2ZM25.41-11.55L25.41-14.43Q25.41-20.19 28.21-23.55 31-26.9 35.59-26.9 40.18-26.9 42.98-23.63 45.77-20.36 45.85-14.72L45.85-14.72 45.85-11.94Q45.85-6.2 43.06-2.86 40.28 0.49 35.64 0.49L35.64 0.49Q31.05 0.49 28.28-2.76 25.51-6.01 25.41-11.55L25.41-11.55ZM29.73-14.45L29.73-11.94Q29.73-7.86 31.33-5.53 32.93-3.2 35.64-3.2L35.64-3.2Q41.35-3.2 41.53-11.45L41.53-11.45 41.53-14.43Q41.53-18.48 39.91-20.84 38.3-23.19 35.59-23.19L35.59-23.19Q32.93-23.19 31.33-20.84 29.73-18.48 29.73-14.45L29.73-14.45ZM50.51-11.69L50.51-14.4Q50.51-20.51 52.79-23.71 55.07-26.9 59.35-26.9L59.35-26.9Q63.13-26.9 65.25-23.83L65.25-23.83 65.25-37.5 69.58-37.5 69.58 0 65.62 0 65.4-2.83Q63.28 0.49 59.32 0.49L59.32 0.49Q55.22 0.49 52.89-2.7 50.56-5.88 50.51-11.69L50.51-11.69ZM54.83-14.58L54.83-11.94Q54.83-7.5 56.15-5.41 57.47-3.32 60.44-3.32L60.44-3.32Q63.67-3.32 65.25-6.57L65.25-6.57 65.25-19.9Q63.59-23.07 60.47-23.07L60.47-23.07Q57.49-23.07 56.17-20.98 54.85-18.9 54.83-14.58L54.83-14.58ZM85.66 0.49L85.66 0.49Q80.73 0.49 78.09-2.45 75.46-5.4 75.41-11.08L75.41-11.08 75.41-14.28Q75.41-20.19 77.98-23.55 80.56-26.9 85.17-26.9L85.17-26.9Q89.81-26.9 92.11-23.95 94.4-21 94.45-14.75L94.45-14.75 94.45-11.91 79.7-11.91 79.7-11.3Q79.7-7.06 81.3-5.13 82.9-3.2 85.91-3.2L85.91-3.2Q87.81-3.2 89.26-3.92 90.72-4.64 91.98-6.2L91.98-6.2 94.23-3.47Q91.42 0.49 85.66 0.49ZM85.17-23.19L85.17-23.19Q82.49-23.19 81.19-21.35 79.9-19.51 79.73-15.63L79.73-15.63 90.13-15.63 90.13-16.21Q89.96-19.97 88.77-21.58 87.59-23.19 85.17-23.19ZM112.47-6.76L112.47-6.76Q112.47-8.15 111.42-9.16 110.37-10.16 107.36-11.5L107.36-11.5Q103.87-12.94 102.44-13.96 101.02-14.99 100.31-16.3 99.6-17.6 99.6-19.41L99.6-19.41Q99.6-22.63 101.96-24.77 104.31-26.9 107.97-26.9L107.97-26.9Q111.83-26.9 114.17-24.66 116.52-22.41 116.52-18.9L116.52-18.9 112.22-18.9Q112.22-20.68 111.03-21.94 109.83-23.19 107.97-23.19L107.97-23.19Q106.07-23.19 104.98-22.2 103.9-21.22 103.9-19.56L103.9-19.56Q103.9-18.24 104.69-17.43 105.48-16.63 108.51-15.31L108.51-15.31Q113.32-13.43 115.05-11.63 116.79-9.84 116.79-7.08L116.79-7.08Q116.79-3.64 114.42-1.57 112.05 0.49 108.07 0.49L108.07 0.49Q103.95 0.49 101.38-1.88 98.82-4.25 98.82-7.89L98.82-7.89 103.16-7.89Q103.24-5.69 104.51-4.44 105.78-3.2 108.07-3.2L108.07-3.2Q110.22-3.2 111.34-4.16 112.47-5.13 112.47-6.76Z"
                                                                                opacity="1"
                                                                                transform="matrix(1,0,0,1,0,0)"
                                                                                fill="#ffffff" class="slogan-text-1"
                                                                                data-fill-palette-color="secondary"
                                                                                id="text-1"></path>
                                                                        </svg></g>
                                                                </svg></g>
                                                        </svg></g>
                                                </svg></g>
                                            <g><svg viewBox="0 0 244.43135999999996 206.82559526399996"
                                                    height="206.82559526399996" width="244.43135999999996">
                                                    <g><svg xmlns="http://www.w3.org/2000/svg"
                                                            xmlns:xlink="http://www.w3.org/1999/xlink" version="1.1"
                                                            x="0" y="0" viewBox="0 13.422 100 84.615"
                                                            enable-background="new 0 0 100 100" xml:space="preserve"
                                                            height="206.82559526399996" width="244.43135999999996"
                                                            class="icon-icon-0" data-fill-palette-color="accent"
                                                            id="icon-0">
                                                            <g fill="#ffffff" data-fill-palette-color="accent">
                                                                <path
                                                                    d="M0 13.422v84.615h100V13.422H0zM92.308 90.346H7.692V28.807h84.615V90.346z"
                                                                    fill="#ffffff" data-fill-palette-color="accent">
                                                                </path>
                                                                <rect x="42.002" y="66.065" width="26.488"
                                                                    height="7.775" fill="#ffffff"
                                                                    data-fill-palette-color="accent"></rect>
                                                                <polygon
                                                                    points="15.521,66.064 41.988,55.549 41.988,55.527 42.002,55.533 42.002,47.181 41.988,47.187 41.988,47.165    15.521,36.65 15.515,45.014 31.487,51.357 15.515,57.701  "
                                                                    fill="#ffffff" data-fill-palette-color="accent">
                                                                </polygon>
                                                            </g>
                                                        </svg></g>
                                                </svg></g>
                                        </svg></g>
                                </svg></g>
                        </svg></g>
                    <defs></defs>
                </svg>
                <rect width="395.52" height="122.99116464744854" fill="none" stroke="none" visibility="hidden"></rect>
            </g>
        </svg></g>
</svg>